<svg version="1.2" xmlns="http://www.w3.org/2000/svg" viewBox="0 0 40 40" width="40" height="40"><style>.a{fill:#430098}</style><path fill-rule="evenodd" class="a" d="m35.9 3.6v32.8c0 2-1.6 3.6-3.6 3.6h-28.7c-2 0-3.6-1.6-3.6-3.6v-32.8c0-2 1.6-3.6 3.6-3.6h28.7c2 0 3.6 1.6 3.6 3.6zm-2 0c0-0.9-0.7-1.6-1.6-1.6h-28.7c-0.9 0-1.6 0.7-1.6 1.6v32.8c0 0.9 0.7 1.6 1.6 1.6h28.7c0.9 0 1.6-0.7 1.6-1.6zm-7.1 18.4v12h-4v-12c0-1-0.5-2.1-2.5-2.1-4 0-8.6 2.1-8.6 2.1l-2.8 1.3v-17.3h4v11.4c2-0.7 4.8-1.4 7.5-1.4 2.5 0 4 1 4.8 1.8 1.7 1.7 1.7 3.9 1.6 4.2zm-17.8 4l4.5 4-4.5 4zm13.9-20h4c-0.3 2.3-1.2 4.4-3 6.5h-4c1.6-2.1 2.6-4.2 3-6.5zm107.5 15.9v-8.8h4v8.8c0 2 0.7 3 2.3 3 1.6 0 2.2-0.9 2.2-3v-8.8h3.9v8.9c0 3.9-1.9 6.2-6.2 6.2-4.3-0.1-6.2-2.4-6.2-6.3zm-16.8-8.8h4v5.4l4.1-5.4h4.6l-5 5.8 5.4 9h-4.5l-3.5-5.9-1.1 1.3v4.6h-4zm-19 7.3c0-5.4 3.7-7.7 7.3-7.7 3.6 0 7.3 2.3 7.3 7.7 0 5.4-3.7 7.7-7.3 7.7-3.6 0-7.3-2.2-7.3-7.7zm10.5 0c0-2.7-1.2-4.4-3.3-4.4-2.1 0-3.3 1.7-3.3 4.4 0 2.7 1.2 4.5 3.3 4.5 2.1 0 3.3-1.7 3.3-4.5zm-26.6-7.3h5.8c3.8 0 6.1 1.3 6.1 4.8 0 2.3-1 3.7-2.9 4.3l3.1 5.7h-4.2l-2.9-5.1h-1.1v5.1h-3.9zm5.7 6.6c1.6 0 2.4-0.5 2.4-1.7 0-1.2-0.7-1.7-2.4-1.7h-1.7v3.4zm-21-6.6h10.6v3.3h-6.6v2.4h4.7v3.1h-4.7v2.7h6.9v3.2h-10.9zm-18.1 0h4v5.5h4.9v-5.5h4v14.8h-4v-6h-4.9v6h-4z"/></svg>