<svg version="1.2" xmlns="http://www.w3.org/2000/svg" viewBox="0 0 1000 1000" width="1000" height="1000"><style>.a{fill:#1f70c1}</style><path class="a" d="m0 672.2h194.4v27.8h-194.4z"/><path class="a" d="m0 618.8h194.4v28h-194.4z"/><path class="a" d="m55.5 565.5h83.4v28h-83.4z"/><path class="a" d="m55.5 512.3h83.4v27.9h-83.4z"/><path class="a" d="m55.5 459h83.4v27.9h-83.4z"/><path class="a" d="m55.5 405.6h83.4v27.9h-83.4z"/><path class="a" d="m0 352.3h194.4v27.9h-194.4z"/><path class="a" d="m0 299h194.4v27.9h-194.4z"/><path class="a" d="m222.2 646.8h299c5-8.7 8.8-18.1 11.1-28h-310.1z"/><path class="a" d="m497.9 512.3h-220.2v27.9h243.5c-6.3-10.7-14.2-20.1-23.3-27.9z"/><path class="a" d="m277.7 459v27.9h220.2c9.3-7.8 17.2-17.2 23.3-27.9z"/><path class="a" d="m521.2 352.3h-299v27.9h310.1c-2.6-9.9-6.3-19.3-11.1-27.9z"/><path class="a" d="m429.3 299h-207.1v27.9h278.5c-18.6-17.2-43.9-27.9-71.4-27.9z"/><path class="a" d="m277.7 405.6h83.3v27.9h-83.3z"/><path class="a" d="m444.4 433.5h87.2c2.5-8.9 3.8-18.3 3.8-27.9h-91z"/><path class="a" d="m277.7 565.5h83.3v28h-83.3z"/><path class="a" d="m444.4 565.5v28h91c0-9.6-1.3-19-3.8-28z"/><path class="a" d="m222.2 699.9l207.1 0.2c27.7 0 52.8-10.6 71.5-27.9h-278.6z"/><path class="a" d="m555.6 672.2h138.8v27.8h-138.8z"/><path class="a" d="m555.6 618.8h138.8v28h-138.8z"/><path class="a" d="m611 565.5h83.4v28h-83.4z"/><path class="a" d="m611 512.3h83.4v27.9h-83.4z"/><path class="a" d="m733.1 352.3h-177.5v27.9h187.1z"/><path class="a" d="m714.6 299h-159v27.9h168.6z"/><path class="a" d="m861 672.2h139v27.8h-139z"/><path class="a" d="m861 618.8h139v28h-139z"/><path class="a" d="m861 565.5h83.4v28h-83.4z"/><path class="a" d="m861 512.3h83.4v27.9h-83.4z"/><path class="a" d="m861 486.9h83.4v-27.9h-83.4-75.4l-7.9 22.5-7.8-22.5h-75.5-83.4v27.9h83.4v-25.7l8.8 25.7h149l8.8-25.7z"/><path class="a" d="m944.4 405.6h-140.4l-9.6 27.9h150z"/><path class="a" d="m840.9 299l-9.6 27.9h168.7v-27.9z"/><path class="a" d="m777.7 699.9l9.6-27.7h-19.2z"/><path class="a" d="m759.3 646.8h36.9l9.9-28h-56.6z"/><path class="a" d="m740.6 593.5h74.3l9.8-28h-93.9z"/><path class="a" d="m722 540.2h111.6l9.5-27.9h-130.7z"/><path class="a" d="m611 433.5h150.1l-9.6-27.9h-140.5z"/><path class="a" d="m812.9 380.2h187.1v-27.9h-177.6z"/></svg>