<svg version="1.2" xmlns="http://www.w3.org/2000/svg" viewBox="0 0 300 300" width="300" height="300"><style>.a{fill:#fff}.b{fill:#0038a8}.c{fill:#ffb81a}</style><path class="a" d="m237 40.8c-18.7-16.2-40.3-27.3-62.8-33.3q-0.9-0.2-1.8-0.5l-7.9-1.7c-6.4-1.4-19.9-3.6-38.3-3l-7.8 0.5c-5.3 0.5-19.5 2.3-37.7 8.8l-7.1 3c-5.3 2.2-16.4 7.5-31 18.1l-5.7 4.7c-3.5 2.9-12.7 10.9-20.6 21l-4.1 5.3 54.3 34.6 5 4.5 8.3 7.7c-6.2 6.2-10.6 12-13.4 17.7-0.7 1.4-17.4 34.8-30.6 76.9l-3.8 12.1 26.2-10.1-22.8 90.3 11.3-4.8c0.5-0.1 46.4-19.3 77.2-28.8l22.2-6.3h0.2l0.1-0.1c4.8-4.7 8.1-11 9.8-18.8l9 18.7 0.6-0.2c2.7-0.9 5.5-1.4 8.4-1.4 31.1-0.7 66.6 12.5 67 12.6l18.9 7-44.8-62.1 35.9 38.8 4.4-5.5c0.4-0.4 8.1-10 15.9-25.9l3-6.5q0.5-1.2 1.2-2.7c25.5-60 11.7-127.1-38.7-170.6z"/><path class="b" d="m160.1 95.4v0.1q0.2 0 0.5 0.1-0.2-0.1-0.5-0.2z"/><path class="b" d="m160.6 95.6q0.5 0.2 1 0.3v-0.1c-0.3-0.1-0.6-0.1-1-0.2z"/><path class="c" d="m127 44.1l-8.9 27.3c6.9-1.4 14.1-2 21.3-1.7 0 0-12.4-25.6-12.4-25.6zm34.4 1.9l-16.7 24q5.6 0.6 11.1 1.7 5.3 1.2 10.2 2.8c0 0-4.6-28.5-4.6-28.5zm-66.7 5.5l-1 28.2c6.3-3.1 12.9-5.6 19.7-7.3 0 0-18.7-20.9-18.7-20.9zm99.1 6.3l-23.2 18.4c6.9 2.7 13.4 6.3 19.4 10.4 0 0 3.8-28.8 3.8-28.8zm-129.3 8.9l7.4 28.3c5.2-4.8 11.5-9.5 17.6-13 0 0-25-15.3-25-15.3zm155.6 10.3l-27.5 11.5c5.9 4.5 11.2 9.6 15.9 15.2zm21.1 27.3l-29.9 3.2c4.4 5.9 8.2 12.3 11.1 19.1 0 0 18.8-22.3 18.8-22.3zm-108.5 5.4c-45.6 0.7-57.8 46.7-57.8 46.7 3.9-3.8 55.9-1.4 55.9-1.4-8.4 33.6-47.9 34.3-47.9 34.3l-19.2 76 62.9-21.6q0 0 0 0c14.7-5.4 23.5-32.3 23.5-32.3l6.3 13.3c0 0 6.9 10.8 23.3 13q0.1 0 0.2 0c10.7 0.3 22.5 1.5 34.8 4.2l-38-51.7c4 1.7 10.4 5.4 15.6 8.5 3.7-7.8 4.2-21.9 4-28.3-5-57.2-56.6-60.4-56.6-60.4q-3.6-0.3-7-0.3zm92.6 22.2c2.2 6.7 3.7 13.8 4.4 21.1l22.6-16.2c0 0-27-4.9-27-4.9zm4.7 28.8c0.3 7-0.3 12.6-1.7 19.7l27.6-7c0 0-25.9-12.7-25.9-12.7zm-2.8 27.5c-2 6.4-3.6 9.8-6.9 15.4l27 3.4c0 0-20.1-18.8-20.1-18.8z"/><path class="b" d="m130.8 8.4q-2.2 0-4.4 0.1l17.5 43.3 21.9-39.9c0 0-13.6-3.8-35-3.5zm-9.4 0.3c0 0-16.1 0.6-38.6 8.6l29.7 36.1c0 0 8.9-44.7 8.9-44.7zm49 4.1l3.7 46.5 32.9-31.5c0 0-13.5-8.7-36.6-15zm-91.9 6.5c0 0-12.9 4.3-32.3 18.4l36.5 26.9c0 0-4.2-45.3-4.2-45.3zm132.6 10.8l-10.3 45.5 40.8-20.4c0 0-10.3-12.2-30.5-25.1zm-168.4 10.5c0 0-11.8 9-21.5 21.6l38.8 24.6c0 0-17.3-46.2-17.3-46.2zm201 17.4l-23.2 40.4 45-7.5c0 0-6.3-14.8-21.8-32.9zm-109.1 19.5c-25.5 0.4-46.3 14.5-56.2 23.2l10.4 9.8c-5.7 5.1-12.9 12.3-16.8 20.4 0 0-17 33.3-30.3 76l13.3-5.1c0 0 0.5-2 1.6-5.2 9.3-26.6 12.3-27.7 12.3-27.7 3.9-4.7 12.8-4.8 12.8-4.8l31.9-0.7c0 0-5.7 16.1-42.2 16.6l-27 107c0 0 72.7-30.4 97.6-34q0.1 0 0.1-0.1h0.1q-0.1 0-0.1 0c14-13.5 8-41.6 8-41.6 0 0-8.8 26.9-23.4 32.3q0 0 0 0l-62.9 21.6 19.1-76c0 0 39.6-0.7 47.9-34.3 0 0-52-2.4-55.9 1.4 0 0 13.5-50.6 64.8-46.4 0 0 51.6 3.2 56.7 60.4 0.1 6.5-0.3 20.5-4 28.3-5.3-3.1-11.7-6.8-15.6-8.5l37.9 51.7c-12.3-2.7-24.1-3.8-34.8-4.1q-0.1-0.1-0.1-0.1c-16.4-2.2-23.4-13-23.4-13l11.9 25.2c33.7-2.6 75 12.7 75 12.7l-40.2-56.1c5.9-18.8 4.9-34.9 4.9-34.9-2-31.2-18.6-59.9-51.6-70.3 0 0-23.1-7.9-42.4-1 0 0 14.2-13.4 46.1-4.7l1.5 0.4c33.3 10.5 46.9 35.5 52.4 55.7 1.7 6.5 5.2 22.1 1.5 50.4 0 0 8.7-16.3 8.1-38.2-0.6-46.7-38.7-85.5-86.5-86.3q-1.2-0.1-2.5 0zm132.9 16.3l-34.3 31.7 45.2 6.2c0 0-1.5-15.9-10.9-37.9zm11.5 42.1l-40.3 20.6 40.6 17.6c0 0 2.7-15.3-0.3-38.2zm-0.3 42.5l-44.7 7.4 33.3 29.1c0 0 7.3-13.7 11.4-36.5zm-59.2 31l31.4 33.2c0 0 7.5-9.2 15.1-24.7 0 0-46.5-8.5-46.5-8.5z"/></svg>